<svg >
   
   <symbol fill="none" xmlns="http://www.w3.org/2000/svg" viewBox="0 0 132 349" id="building-01">
      <path d="M60.0664 42.6123H65.9137C65.9137 42.6123 67.3368 202.666 65.3238 215.047C64.0703 240.722 50.5542 304.372 27.7252 341.661H5.65576C5.65576 341.661 31.53 289.919 37.9968 269.376C44.4635 248.833 50.1708 224.861 50.9303 213.83C51.6971 202.784 60.0664 42.6123 60.0664 42.6123Z" fill="#5FD6FF"></path>
      <path d="M17.7853 348.504V341.653H4.34304L0 348.504H17.7853Z" fill="#5FD6FF"></path>
      <path d="M17.7856 348.504V341.653H31.2279L35.5711 348.504H17.7856Z" fill="#5FD6FF"></path>
      <path d="M66.9092 293.717H27.7252L25.4395 284.868H66.9092V293.717Z" fill="#07B1FF"></path>
      <path d="M30.5496 341.653C30.5496 341.653 35.9472 306.694 65.995 306.694V303.413H25.1077L26.2211 341.653H30.5496Z" fill="#5FD6FF"></path>
      <path d="M65.9946 225.71H49.0056L46.4617 219.862H65.9946V225.71Z" fill="#07B1FF"></path>
      <path d="M71.8279 42.6123H65.9141C65.9141 42.6123 64.3362 202.666 66.3492 215.047C67.6028 240.722 81.3398 304.372 104.169 341.661H126.239C126.239 341.661 100.364 289.919 93.8973 269.376C87.4306 248.833 81.7233 224.861 80.9638 213.83C80.1969 202.784 71.8279 42.6123 71.8279 42.6123Z" fill="#5FD6FF"></path>
      <path d="M113.821 348.504V341.653H127.263L131.606 348.504H113.821Z" fill="#5FD6FF"></path>
      <path d="M113.821 348.504V341.653H100.378L96.0354 348.504H113.821Z" fill="#5FD6FF"></path>
      <path d="M65.9949 293.717H104.161L106.447 284.868H65.9949V293.717Z" fill="#07B1FF"></path>
      <path d="M101.352 341.653C101.352 341.653 95.969 306.694 65.9949 306.694V303.413H106.779L105.673 341.653H101.352Z" fill="#5FD6FF"></path>
      <path d="M65.9946 225.71H82.8951L85.4243 219.862H65.9946V225.71Z" fill="#07B1FF"></path>
      <path d="M85.4833 215.526H46.5132V216.942L85.4833 216.942V215.526Z" fill="#07B1FF"></path>
      <path d="M48.0322 216.47H47.0662V219.862H48.0322V216.47Z" fill="#07B1FF"></path>
      <path d="M51.3571 216.47H50.3911V219.862H51.3571V216.47Z" fill="#07B1FF"></path>
      <path d="M54.6906 216.47H53.7246V219.862H54.6906V216.47Z" fill="#07B1FF"></path>
      <path d="M58.016 216.47H57.05V219.862H58.016V216.47Z" fill="#07B1FF"></path>
      <path d="M61.3486 216.47H60.3826V219.862H61.3486V216.47Z" fill="#07B1FF"></path>
      <path d="M64.6747 216.47H63.7087V219.862H64.6747V216.47Z" fill="#07B1FF"></path>
      <path d="M68.0002 216.47H67.0342V219.862H68.0002V216.47Z" fill="#07B1FF"></path>
      <path d="M71.3332 216.47H70.3672V219.862H71.3332V216.47Z" fill="#07B1FF"></path>
      <path d="M74.6586 216.47H73.6926V219.862H74.6586V216.47Z" fill="#07B1FF"></path>
      <path d="M77.9912 216.47H77.0254V219.862H77.9912V216.47Z" fill="#07B1FF"></path>
      <path d="M81.3164 216.47H80.3506V219.862H81.3164V216.47Z" fill="#07B1FF"></path>
      <path d="M84.6499 216.47H83.6841V219.862H84.6499V216.47Z" fill="#07B1FF"></path>
      <path d="M67.4401 0L65.3459 0V27.3933H67.4401V0Z" fill="#5FD6FF"></path>
      <path d="M66.9093 305.131H23.1831L27.7252 293.717H66.9093V305.131Z" fill="#5FD6FF"></path>
      <path d="M65.9949 305.131H108.711L104.161 293.717H65.9949V305.131Z" fill="#5FD6FF"></path>
      <path d="M106.904 278.306H26.582V280.444H106.904V278.306Z" fill="#07B1FF"></path>
      <path d="M29.7157 279.736H27.7249V284.876H29.7157V279.736Z" fill="#07B1FF"></path>
      <path d="M36.5807 279.736H34.5898V284.876H36.5807V279.736Z" fill="#07B1FF"></path>
      <path d="M43.4384 279.736H41.4475V284.876H43.4384V279.736Z" fill="#07B1FF"></path>
      <path d="M50.3028 279.736H48.3118V284.876H50.3028V279.736Z" fill="#07B1FF"></path>
      <path d="M57.1603 279.736H55.1694V284.876H57.1603V279.736Z" fill="#07B1FF"></path>
      <path d="M64.0253 279.736H62.0344V284.876H64.0253V279.736Z" fill="#07B1FF"></path>
      <path d="M70.883 279.736H68.8921V284.876H70.883V279.736Z" fill="#07B1FF"></path>
      <path d="M77.7482 279.736H75.7573V284.876H77.7482V279.736Z" fill="#07B1FF"></path>
      <path d="M84.6131 279.736H82.6221V284.876H84.6131L84.6131 279.736Z" fill="#07B1FF"></path>
      <path d="M91.4706 279.736H89.4797V284.876H91.4706V279.736Z" fill="#07B1FF"></path>
      <path d="M98.3356 279.736H96.3447V284.876H98.3356V279.736Z" fill="#07B1FF"></path>
      <path d="M105.193 279.736H103.202V284.876H105.193V279.736Z" fill="#07B1FF"></path>
      <path d="M65.9137 24.3184C62.92 24.6428 60.5825 27.1499 60.5825 30.2247V30.6229H65.9137V24.3184Z" fill="#07B1FF"></path>
      <path d="M65.9139 33.1006H60.5828V33.7421C60.5828 34.4942 60.7376 35.2021 60.9884 35.8583H65.9139V33.1006Z" fill="#07B1FF"></path>
      <path d="M60.9882 35.8584H59.447C57.5815 35.8584 56.0698 37.37 56.0698 39.2356C56.0698 41.1011 57.5815 42.6127 59.447 42.6127H65.9138V39.6485V35.8584H60.9882Z" fill="#5FD6FF"></path>
      <path d="M60.5825 30.623H58.0681V33.1006H60.5825H65.9137V30.623H60.5825Z" fill="#5FD6FF"></path>
      <path d="M65.9133 35.8583H72.1219C72.3726 35.1947 72.5275 34.4868 72.5275 33.7421V33.1006H65.9133V35.8583Z" fill="#07B1FF"></path>
      <path d="M72.5275 30.6228V30.2247C72.5275 26.9286 69.851 24.252 66.5549 24.252C66.3337 24.252 66.1272 24.2962 65.9133 24.3183V30.6228H72.5275Z" fill="#07B1FF"></path>
      <path d="M73.3313 35.8574H72.1219H65.9133V39.6475V42.6117H73.3387C75.2043 42.6117 76.7157 41.1001 76.7157 39.2346C76.7084 37.369 75.1969 35.8574 73.3313 35.8574Z" fill="#5FD6FF"></path>
      <path d="M72.5278 30.623H65.9136V33.1006H72.5278H75.5658V30.623H72.5278Z" fill="#5FD6FF"></path>
      <path d="M71.8563 42.6719H60.0215V44.2425H71.8563V42.6719Z" fill="#07B1FF"></path>
   </symbol>
   
</svg>