<svg width="602" height="551" viewBox="0 0 602 551" fill="none" xmlns="http://www.w3.org/2000/svg">
<path d="M378.302 15.918L420.208 56.3535L462.326 284.295H67.2539L378.302 15.918Z" fill="#FFCF2D"/>
<path d="M420.568 56.036L378.535 15.4735L385.565 8.16972C395.92 -2.58485 414.575 -1.35696 425.333 8.9742C436.09 19.3265 437.974 37.9776 427.62 48.7322L420.568 56.036Z" fill="white"/>
<path d="M420.59 56.925L377.646 15.4945L385.12 7.72497C390.16 2.47471 397.339 -0.256271 405.343 0.0189438C413.009 0.294159 420.462 3.38504 425.799 8.50828C431.135 13.6315 434.502 20.9776 435.052 28.6413C435.624 36.6226 433.147 43.9052 428.107 49.1555L420.59 56.925ZM379.424 15.4522L420.547 55.1255L427.154 48.2875C431.961 43.3124 434.29 36.3685 433.761 28.7472C433.231 21.3799 430.013 14.3513 424.888 9.43977C419.764 4.52824 412.628 1.56438 405.28 1.31034C397.656 1.03512 390.817 3.63908 386.031 8.61413L379.424 15.4522Z" fill="#FFCF2D"/>
<path d="M427.599 49.367C427.43 49.367 427.281 49.3035 427.154 49.1977L385.1 8.63516C384.845 8.38112 384.845 8.00005 385.078 7.746C385.332 7.49196 385.735 7.49196 385.968 7.72483L428.022 48.2873C428.277 48.5414 428.277 48.9224 428.044 49.1765C427.938 49.3035 427.768 49.367 427.599 49.367Z" fill="#FFCF2D"/>
<path d="M508.828 283.194C508.743 283.194 508.659 283.173 508.574 283.131C508.256 282.983 508.108 282.602 508.256 282.284L567.23 150.773L451.929 10.456V10.4348C449.748 7.47095 446.551 5.56561 442.909 5.03635C439.266 4.50709 435.645 5.45976 432.723 7.70382L428.022 11.3028C427.747 11.5145 427.345 11.4722 427.133 11.1758C426.921 10.9006 426.963 10.4983 427.26 10.2866L431.961 6.68764C435.158 4.25304 439.118 3.2157 443.099 3.7873C447.08 4.3589 450.574 6.4336 452.946 9.67267L568.713 150.583L568.543 150.943L509.4 282.813C509.294 283.046 509.061 283.194 508.828 283.194Z" fill="#3FB1B5"/>
<path d="M566.087 157.865C569.665 157.865 572.566 154.965 572.566 151.387C572.566 147.81 569.665 144.909 566.087 144.909C562.508 144.909 559.607 147.81 559.607 151.387C559.607 154.965 562.508 157.865 566.087 157.865Z" fill="white"/>
<path d="M566.087 158.501C562.169 158.501 558.972 155.304 558.972 151.388C558.972 147.471 562.169 144.274 566.087 144.274C570.004 144.274 573.202 147.471 573.202 151.388C573.202 155.304 570.004 158.501 566.087 158.501ZM566.087 145.545C562.868 145.545 560.242 148.17 560.242 151.388C560.242 154.606 562.868 157.231 566.087 157.231C569.305 157.231 571.931 154.606 571.931 151.388C571.931 148.17 569.305 145.545 566.087 145.545Z" fill="#FFCF2D"/>
<path d="M492.396 267.824H523.969C533.053 267.824 540.401 275.192 540.401 284.252V284.718H475.942V284.252C475.964 275.192 483.311 267.824 492.396 267.824Z" fill="white"/>
<path d="M541.036 285.354H475.307V284.253C475.328 274.853 482.994 267.189 492.396 267.189H523.969C533.371 267.189 541.036 274.853 541.036 284.253V285.354ZM476.578 284.083H539.766C539.681 275.446 532.629 268.46 523.969 268.46H492.396C483.756 268.46 476.684 275.446 476.578 284.083Z" fill="#FFCF2D"/>
<path d="M339.444 236.64H139.568C132.051 236.64 125.974 230.564 125.974 223.049V83.2818C125.974 75.7663 132.051 69.6904 139.568 69.6904H339.444C346.962 69.6904 353.039 75.7663 353.039 83.2818V223.028C353.06 230.543 346.962 236.64 339.444 236.64Z" fill="white"/>
<path d="M339.444 237.276H139.568C131.712 237.276 125.338 230.903 125.338 223.049V83.2822C125.338 75.428 131.712 69.0557 139.568 69.0557H339.444C347.301 69.0557 353.674 75.428 353.674 83.2822V223.028C353.696 226.818 352.213 230.395 349.524 233.084C346.835 235.794 343.256 237.276 339.444 237.276ZM139.568 70.3259C132.432 70.3259 126.609 76.1478 126.609 83.2822V223.049C126.609 230.184 132.432 236.005 139.568 236.005H339.444C342.917 236.005 346.178 234.651 348.635 232.195C351.07 229.739 352.425 226.479 352.404 223.028V83.2822C352.404 76.1478 346.581 70.3259 339.444 70.3259H139.568Z" fill="#3FB1B5"/>
<path d="M339.572 223.642H141.623C138.679 223.642 136.308 221.249 136.308 218.328V84.6155C136.308 81.6728 138.7 79.3018 141.623 79.3018H339.572C342.515 79.3018 344.887 81.694 344.887 84.6155V218.307C344.908 221.249 342.515 223.642 339.572 223.642Z" fill="#66B0F0"/>
<path d="M339.572 224.277H141.623C138.34 224.277 135.672 221.61 135.672 218.328V84.6159C135.672 81.3345 138.34 78.667 141.623 78.667H339.572C342.854 78.667 345.522 81.3345 345.522 84.6159V218.307C345.543 219.895 344.929 221.398 343.807 222.52C342.663 223.642 341.181 224.277 339.572 224.277ZM141.623 79.9372C139.039 79.9372 136.943 82.0331 136.943 84.6159V218.328C136.943 220.911 139.039 223.007 141.623 223.007H339.572C340.821 223.007 342.007 222.52 342.896 221.631C343.786 220.742 344.252 219.577 344.252 218.328V84.6159C344.252 82.0331 342.155 79.9372 339.572 79.9372H141.623Z" fill="#66B0F0"/>
<path d="M148.716 92.4283H145.582C144.206 92.4283 143.083 91.3062 143.083 89.9302V86.7969C143.083 85.4209 144.206 84.2988 145.582 84.2988H148.716C150.093 84.2988 151.215 85.4209 151.215 86.7969V89.9302C151.194 91.3274 150.093 92.4283 148.716 92.4283ZM145.582 85.5691C144.905 85.5691 144.354 86.1195 144.354 86.7969V89.9302C144.354 90.6076 144.905 91.1581 145.582 91.1581H148.716C149.394 91.1581 149.923 90.6076 149.944 89.909V86.7969C149.944 86.1195 149.394 85.5691 148.716 85.5691H145.582Z" fill="white"/>
<path d="M162.967 92.4283H159.833C158.457 92.4283 157.334 91.3062 157.334 89.9302V86.7969C157.334 85.4209 158.457 84.2988 159.833 84.2988H162.967C164.344 84.2988 165.466 85.4209 165.466 86.7969V89.9302C165.466 91.3062 164.344 92.4283 162.967 92.4283ZM159.833 85.5691C159.156 85.5691 158.605 86.1195 158.605 86.7969V89.9302C158.605 90.6076 159.156 91.1581 159.833 91.1581H162.967C163.645 91.1581 164.195 90.6076 164.195 89.9302V86.7969C164.195 86.1195 163.645 85.5691 162.967 85.5691H159.833Z" fill="white"/>
<path d="M177.219 92.4283H174.085C172.708 92.4283 171.586 91.3062 171.586 89.9302V86.7969C171.586 85.4209 172.708 84.2988 174.085 84.2988H177.219C178.595 84.2988 179.717 85.4209 179.717 86.7969V89.9302C179.717 91.3062 178.595 92.4283 177.219 92.4283ZM174.085 85.5691C173.407 85.5691 172.856 86.1195 172.856 86.7969V89.9302C172.856 90.6076 173.407 91.1581 174.085 91.1581H177.219C177.917 91.1581 178.447 90.6288 178.447 89.9302V86.7969C178.447 86.1195 177.896 85.5691 177.219 85.5691H174.085Z" fill="white"/>
<path d="M281.699 284.295H204.112L219.337 236.641H266.453L281.699 284.295Z" fill="white"/>
<path d="M282.567 284.931H203.243L218.871 236.006H266.918L282.567 284.931ZM204.98 283.66H280.83L265.986 237.276H219.802L204.98 283.66Z" fill="#3FB1B5"/>
<path d="M210.21 265.221L219.337 236.641H266.452L210.21 265.221Z" fill="#3FB1B5"/>
<path d="M328.052 123.781H290.338C286.463 123.781 283.308 120.627 283.308 116.752V92.4065C283.308 88.5323 286.463 85.3779 290.338 85.3779H328.052C331.927 85.3779 335.082 88.5323 335.082 92.4065V116.752C335.082 120.627 331.927 123.781 328.052 123.781ZM290.338 86.6482C287.162 86.6482 284.579 89.2309 284.579 92.4065V116.752C284.579 119.928 287.162 122.511 290.338 122.511H328.052C331.228 122.511 333.812 119.928 333.812 116.752V92.4065C333.812 89.2309 331.228 86.6482 328.052 86.6482H290.338Z" fill="white"/>
<path d="M323.499 95.3278H294.722C294.362 95.3278 294.086 95.0526 294.086 94.6927C294.086 94.3328 294.362 94.0576 294.722 94.0576H323.499C323.859 94.0576 324.134 94.3328 324.134 94.6927C324.134 95.0526 323.859 95.3278 323.499 95.3278Z" fill="white"/>
<path d="M323.499 101.891H294.722C294.362 101.891 294.086 101.616 294.086 101.256C294.086 100.896 294.362 100.621 294.722 100.621H323.499C323.859 100.621 324.134 100.896 324.134 101.256C324.134 101.616 323.859 101.891 323.499 101.891Z" fill="white"/>
<path d="M323.499 108.454H294.722C294.362 108.454 294.086 108.179 294.086 107.819C294.086 107.459 294.362 107.184 294.722 107.184H323.499C323.859 107.184 324.134 107.459 324.134 107.819C324.134 108.179 323.859 108.454 323.499 108.454Z" fill="white"/>
<path d="M323.499 115.016H294.722C294.362 115.016 294.086 114.741 294.086 114.381C294.086 114.021 294.362 113.746 294.722 113.746H323.499C323.859 113.746 324.134 114.021 324.134 114.381C324.134 114.741 323.859 115.016 323.499 115.016Z" fill="white"/>
<path d="M326.792 217.465H176.89L168.102 230.061C158.171 244.288 137.186 244.5 126.979 230.464L73.4473 156.854C75.6919 159.649 85.962 156.537 95.7451 150.101C105.676 143.559 112.093 135.324 110.081 132.275L147.202 179.57L158.573 159.501C161.686 154.187 166.853 150.376 172.867 148.979L211.554 140.786H244.906L281.667 148.894C288.062 150.355 293.483 154.525 296.553 160.305L326.792 217.465Z" fill="white"/>
<path d="M147.392 241.493C139.028 241.493 131.405 237.619 126.471 230.824L72.939 157.214L73.9554 156.452C75.7553 158.675 85.3055 156.219 95.4062 149.572C100.107 146.481 104.194 142.903 106.905 139.473C109.361 136.382 110.356 133.821 109.551 132.614L110.589 131.873L147.117 178.427L158.022 159.183C161.22 153.721 166.577 149.783 172.718 148.365L211.491 140.151H244.969L245.033 140.172L281.793 148.28C288.358 149.783 293.948 154.06 297.103 160.009L327.829 218.1H177.207L168.61 230.421C163.761 237.365 156.117 241.409 147.625 241.493C147.562 241.493 147.477 241.493 147.392 241.493ZM75.3953 158.442L127.508 230.083C132.252 236.603 139.578 240.308 147.646 240.223C155.714 240.139 162.977 236.307 167.594 229.702L176.572 216.83H325.754L296.002 160.601C293.016 154.97 287.744 150.926 281.539 149.508L244.842 141.421H211.618L172.993 149.593C167.191 150.948 162.13 154.674 159.123 159.818L147.286 180.713L110.991 134.477C110.695 136.065 109.657 138.055 107.879 140.278C105.083 143.792 100.891 147.476 96.0838 150.63C89.3712 155.033 81.3033 158.505 76.4964 158.505C76.1153 158.505 75.7341 158.484 75.3953 158.442Z" fill="#3FB1B5"/>
<path d="M285.648 217.233C285.415 217.233 285.203 217.106 285.076 216.894L274.425 195.872C274.277 195.554 274.382 195.173 274.7 195.025C275.018 194.877 275.399 194.983 275.547 195.3L286.198 216.322C286.347 216.64 286.241 217.021 285.923 217.169C285.838 217.212 285.754 217.233 285.648 217.233Z" fill="#3FB1B5"/>
<path d="M176.043 219.201C175.937 219.201 175.852 219.18 175.747 219.138C175.429 218.989 175.302 218.587 175.471 218.291L186.017 197.48C186.165 197.163 186.567 197.036 186.864 197.205C187.181 197.353 187.308 197.756 187.139 198.052L176.594 218.862C176.488 219.074 176.276 219.201 176.043 219.201Z" fill="#3FB1B5"/>
<path d="M156.921 192.738C156.73 192.738 156.54 192.653 156.413 192.484L132.252 161.596C132.04 161.321 132.082 160.919 132.357 160.707C132.633 160.495 133.035 160.538 133.247 160.813L157.408 191.701C157.62 191.976 157.578 192.378 157.302 192.59C157.196 192.696 157.048 192.738 156.921 192.738Z" fill="#3FB1B5"/>
<path d="M241.2 162.677L231.904 151.35C231.671 151.075 231.714 150.673 231.989 150.461C232.264 150.228 232.666 150.271 232.878 150.546L241.37 160.856L260.788 144.385C261.063 144.153 261.465 144.195 261.677 144.449C261.91 144.724 261.868 145.126 261.613 145.338L241.2 162.677Z" fill="#3FB1B5"/>
<path d="M217.06 163.079L194.677 145.359C194.402 145.148 194.36 144.745 194.571 144.47C194.783 144.195 195.186 144.153 195.461 144.364L216.827 161.28L225.064 150.758C225.276 150.483 225.678 150.44 225.954 150.652C226.229 150.864 226.271 151.266 226.059 151.541L217.06 163.079Z" fill="#3FB1B5"/>
<path d="M83.6327 168.286C81.621 168.286 80.5622 167.672 80.0328 166.994C79.8211 166.719 79.8634 166.317 80.1387 166.105C80.414 165.894 80.8163 165.936 81.0281 166.211C81.9175 167.333 84.8185 167.27 88.7783 166.084C92.9923 164.814 98.0744 162.316 102.691 159.246C107.413 156.113 111.521 152.493 114.253 149.021C116.73 145.888 117.725 143.305 116.921 142.077C116.73 141.78 116.815 141.399 117.111 141.188C117.408 140.997 117.789 141.082 118.001 141.378C119.144 143.135 118.17 146.12 115.269 149.804C112.453 153.361 108.239 157.087 103.411 160.283C98.625 163.459 93.564 165.957 89.1595 167.291C86.7667 168.011 84.9668 168.286 83.6327 168.286Z" fill="#3FB1B5"/>
<path d="M110.801 147.73C109.128 147.73 107.773 146.375 107.773 144.702C107.773 143.03 109.128 141.675 110.801 141.675C112.474 141.675 113.829 143.03 113.829 144.702C113.829 146.375 112.474 147.73 110.801 147.73ZM110.801 142.945C109.827 142.945 109.043 143.728 109.043 144.702C109.043 145.676 109.827 146.459 110.801 146.459C111.775 146.459 112.559 145.676 112.559 144.702C112.559 143.728 111.775 142.945 110.801 142.945Z" fill="#3FB1B5"/>
<path d="M228.96 162.761C227.287 162.761 225.932 161.406 225.932 159.733C225.932 158.061 227.287 156.706 228.96 156.706C230.633 156.706 231.988 158.061 231.988 159.733C231.988 161.406 230.633 162.761 228.96 162.761ZM228.96 157.976C227.986 157.976 227.203 158.76 227.203 159.733C227.203 160.707 227.986 161.491 228.96 161.491C229.934 161.491 230.718 160.707 230.718 159.733C230.718 158.76 229.934 157.976 228.96 157.976Z" fill="#3FB1B5"/>
<path d="M228.96 182.025C227.287 182.025 225.932 180.671 225.932 178.998C225.932 177.326 227.287 175.971 228.96 175.971C230.633 175.971 231.988 177.326 231.988 178.998C231.988 180.671 230.633 182.025 228.96 182.025ZM228.96 177.241C227.986 177.241 227.203 178.024 227.203 178.998C227.203 179.972 227.986 180.755 228.96 180.755C229.934 180.755 230.718 179.972 230.718 178.998C230.718 178.024 229.934 177.241 228.96 177.241Z" fill="#3FB1B5"/>
<path d="M167.34 231.077L176.89 217.465V231.077H167.34Z" fill="#3FB1B5"/>
<path d="M95.5119 149.466C85.7288 155.901 75.4586 159.013 73.214 156.219C73.1716 156.177 73.1505 156.134 73.1081 156.071C72.6423 155.372 72.6846 154.419 73.1081 153.255C74.5692 149.423 80.6043 143.496 88.2698 138.457C94.3684 134.435 100.382 131.64 104.554 130.772C106.968 130.285 108.768 130.433 109.636 131.365L109.848 131.619C111.838 134.667 105.443 142.924 95.5119 149.466Z" fill="#FE5244"/>
<path d="M95.512 149.465C89.9429 153.128 84.2043 155.732 79.8845 156.748L60.5512 129.48C57.8619 125.67 58.7513 120.398 62.5841 117.709L79.9904 105.473L70.1226 88.6849C68.6826 86.2503 69.5085 83.0959 71.9648 81.6775C72.7695 81.2117 73.6377 81 74.5059 81C76.1788 81 77.8305 81.8257 78.8045 83.3499L109.657 131.322L109.869 131.661C111.838 134.667 105.443 142.923 95.512 149.465Z" fill="#E57281"/>
<path d="M85.4535 129.797C85.1782 129.797 84.9029 129.776 84.6276 129.712C83.5688 129.501 82.6583 128.866 82.0866 127.977L71.9011 112.734C71.7105 112.437 71.7952 112.056 72.0705 111.845C72.367 111.654 72.7481 111.739 72.9599 112.014L83.1453 127.257C83.5477 127.871 84.1618 128.294 84.8817 128.442C85.6017 128.59 86.3428 128.442 86.9569 128.04L89.3498 126.473C90.6203 125.648 90.9803 123.954 90.1756 122.684L79.3973 105.98C79.2067 105.684 79.2914 105.303 79.5878 105.112C79.8843 104.922 80.2655 105.007 80.4561 105.303L91.2344 122.006C92.4202 123.869 91.8697 126.346 90.0274 127.532L87.6345 129.099C86.9993 129.564 86.237 129.797 85.4535 129.797Z" fill="#9A3B82"/>
<path d="M77.5553 134.857C76.2424 134.857 74.9507 134.222 74.1672 133.057C73.9766 132.761 74.0613 132.38 74.3578 132.168C74.6542 131.978 75.0354 132.062 75.2471 132.359C76.073 133.608 77.767 133.968 79.0376 133.163L81.2187 131.787C81.8327 131.385 82.2774 130.771 82.4256 130.03C82.5739 129.289 82.4468 128.548 82.0445 127.934C81.8539 127.638 81.9386 127.257 82.2351 127.045C82.5315 126.855 82.9127 126.939 83.1245 127.236C83.7174 128.146 83.9291 129.226 83.6962 130.305C83.4632 131.364 82.828 132.274 81.9174 132.867L79.7364 134.243C79.0587 134.645 78.2964 134.857 77.5553 134.857Z" fill="#9A3B82"/>
<path d="M69.8052 139.6C68.5346 139.6 67.2853 139.007 66.5018 137.885L60.7208 129.735C60.5091 129.438 60.5938 129.057 60.8691 128.845C61.1444 128.634 61.5467 128.718 61.7584 128.994L67.5394 137.144C68.4076 138.351 70.0381 138.669 71.2663 137.885L71.3086 137.864L73.3203 136.742C73.9556 136.34 74.3791 135.726 74.5485 135.006C74.7179 134.265 74.5697 133.524 74.1673 132.889L64.1936 118.07C64.0031 117.773 64.0666 117.392 64.3631 117.181C64.6595 116.99 65.0407 117.054 65.2524 117.35L75.2261 132.169C75.8402 133.101 76.0308 134.202 75.7979 135.26C75.5649 136.319 74.9297 137.229 73.9979 137.801L73.9767 137.822L71.9651 138.944C71.2663 139.409 70.5251 139.6 69.8052 139.6Z" fill="#9A3B82"/>
<path d="M102.457 120.144L97.3965 112.29C95.7237 109.686 92.2297 108.966 89.6675 110.702L77.1104 119.213C77.1104 119.213 80.7525 125.754 89.6039 120.568L92.5685 125.289C86.5123 129.12 84.7759 137.186 88.7146 143.178L102.457 120.144Z" fill="#E57281"/>
<path d="M88.7144 143.812C88.5027 143.812 88.3121 143.706 88.185 143.516C86.1945 140.467 85.4957 136.826 86.2792 133.269C86.9992 129.924 88.9262 127.045 91.7002 125.098L89.392 121.414C86.3428 123.086 83.5688 123.573 81.1124 122.917C77.9996 122.07 76.602 119.614 76.5385 119.53L76.2632 119.022L88.6297 110.384C90.0273 109.453 91.679 109.114 93.3095 109.453C94.94 109.791 96.3376 110.744 97.2482 112.162L102.309 120.017C102.5 120.313 102.415 120.694 102.119 120.885C101.822 121.075 101.441 120.99 101.25 120.694L96.1894 112.84C95.4694 111.718 94.3683 110.956 93.0554 110.702C91.7637 110.426 90.4296 110.702 89.3497 111.443L77.9784 119.382C78.4866 120.038 79.6301 121.223 81.4512 121.71C83.6958 122.324 86.3216 121.753 89.265 120.038L89.7944 119.72L93.4154 125.5L92.886 125.838C90.112 127.596 88.185 130.348 87.4862 133.566C86.7874 136.784 87.4015 140.086 89.2226 142.838C89.4132 143.135 89.3285 143.516 89.0321 143.727C88.9474 143.77 88.8415 143.812 88.7144 143.812Z" fill="#9A3B82"/>
<path d="M95.512 149.466C89.9429 153.128 84.2043 155.732 79.8845 156.749L75.0776 149.974C77.7669 146.46 82.5738 142.226 88.27 138.478C94.3685 134.456 100.382 131.662 104.554 130.794C106.968 130.307 108.768 130.455 109.636 131.386L109.848 131.64C109.869 131.683 109.89 131.704 109.911 131.746C109.933 131.767 109.933 131.789 109.954 131.831C109.975 131.873 109.996 131.894 110.017 131.937C111.457 135.176 105.126 143.115 95.512 149.466Z" fill="#9A3B82"/>
<path d="M244.885 122.156V140.765C244.885 146.164 237.389 150.525 228.177 150.525C218.945 150.525 211.47 146.164 211.47 140.765V122.156H244.885Z" fill="#E57281"/>
<path d="M216.361 147.667C213.332 145.909 211.448 143.454 211.448 140.765V122.156H244.884V127.322C244.884 132.678 241.623 137.484 236.668 139.495L216.361 147.667Z" fill="#9A3B82"/>
<path d="M254.201 121.055V121.372C254.201 124.59 251.597 127.194 248.378 127.194H244.545C243.253 132.402 238.552 136.276 232.92 136.276H223.433C217.822 136.276 213.099 132.423 211.829 127.194H207.996C204.777 127.194 202.173 124.59 202.173 121.372V121.055C202.173 117.837 204.777 115.233 207.996 115.233H211.469V110.639C211.469 105.728 215.09 101.663 219.812 100.985C220.85 102.721 223.984 106.871 230.379 106.638C233.386 106.532 236.181 105.96 238.489 105.283C241.263 104.478 244.037 106.172 244.736 108.818C244.842 109.411 244.905 110.004 244.905 110.618V115.212H248.378C251.575 115.212 254.201 117.837 254.201 121.055Z" fill="#E57281"/>
<path d="M247.552 115.212H244.884V110.11C244.884 109.665 244.82 109.221 244.714 108.818C244.016 106.172 241.242 104.479 238.468 105.283C236.159 105.96 233.385 106.532 230.357 106.638C223.962 106.871 220.828 102.721 219.791 100.985C215.069 101.663 211.448 105.728 211.448 110.639V115.233H208.123C208.123 115.233 204.311 101.451 207.17 97.5558C209.986 93.7239 213.375 95.3964 213.375 95.3964C213.375 95.3964 211.342 83.922 222.692 84.1338C234.021 84.3455 248.759 97.4923 249.839 99.9057C251.533 103.611 247.552 115.212 247.552 115.212Z" fill="#9A3B82"/>
<path d="M246.176 122.664C245.879 122.664 245.646 122.431 245.646 122.135C245.646 119.594 247.722 117.52 250.263 117.52C250.559 117.52 250.792 117.752 250.792 118.049C250.792 118.345 250.559 118.578 250.263 118.578C248.293 118.578 246.705 120.166 246.705 122.135C246.705 122.431 246.472 122.664 246.176 122.664Z" fill="#9A3B82"/>
<path d="M210.219 122.664C209.923 122.664 209.69 122.431 209.69 122.135C209.69 120.166 208.102 118.578 206.132 118.578C205.836 118.578 205.603 118.345 205.603 118.049C205.603 117.752 205.836 117.52 206.132 117.52C208.673 117.52 210.749 119.594 210.749 122.135C210.749 122.431 210.516 122.664 210.219 122.664Z" fill="#9A3B82"/>
<path d="M239.548 111.168C239.442 111.168 239.336 111.126 239.23 111.062C239.124 110.978 236.393 109.051 232.899 110.512C232.623 110.618 232.327 110.491 232.2 110.215C232.094 109.94 232.221 109.644 232.496 109.517C236.562 107.844 239.717 110.088 239.844 110.194C240.077 110.364 240.141 110.702 239.95 110.935C239.865 111.083 239.717 111.168 239.548 111.168Z" fill="#9A3B82"/>
<path d="M216.593 111.168C216.424 111.168 216.276 111.084 216.17 110.957C216.001 110.724 216.043 110.385 216.276 110.216C216.403 110.11 219.579 107.866 223.624 109.538C223.899 109.644 224.026 109.962 223.92 110.237C223.814 110.512 223.497 110.639 223.221 110.533C219.706 109.072 216.932 111.063 216.89 111.084C216.805 111.126 216.699 111.168 216.593 111.168Z" fill="#9A3B82"/>
<path d="M229.51 128.993C228.685 128.993 227.732 128.824 226.652 128.422C226.376 128.316 226.228 128.019 226.334 127.744C226.44 127.469 226.736 127.321 227.012 127.427C231.459 129.078 232.92 126.156 232.983 126.029C233.11 125.775 233.428 125.648 233.682 125.775C233.936 125.902 234.063 126.22 233.936 126.474C233.915 126.516 232.708 128.993 229.51 128.993Z" fill="#9A3B82"/>
<path d="M228.007 125.013C227.52 125.013 226.991 125.013 226.546 124.971C226.25 124.95 226.038 124.696 226.059 124.399C226.08 124.103 226.334 123.891 226.631 123.913C227.88 123.997 229.807 123.913 229.828 123.913C230.125 123.891 230.358 124.124 230.379 124.421C230.4 124.717 230.167 124.95 229.871 124.971C229.828 124.971 228.96 125.013 228.007 125.013Z" fill="#9A3B82"/>
<path d="M236.138 119.467C236.723 119.467 237.197 118.671 237.197 117.688C237.197 116.706 236.723 115.91 236.138 115.91C235.554 115.91 235.08 116.706 235.08 117.688C235.08 118.671 235.554 119.467 236.138 119.467Z" fill="#9A3B82"/>
<path d="M220.955 119.467C221.54 119.467 222.014 118.671 222.014 117.688C222.014 116.706 221.54 115.91 220.955 115.91C220.371 115.91 219.896 116.706 219.896 117.688C219.896 118.671 220.371 119.467 220.955 119.467Z" fill="#9A3B82"/>
<path d="M223.475 124.209H216.805C215.238 124.209 213.946 122.917 213.946 121.351V114.682C213.946 113.116 215.238 111.824 216.805 111.824H223.475C225.042 111.824 226.334 113.116 226.334 114.682V121.351C226.355 122.092 226.059 122.812 225.529 123.341C224.979 123.913 224.259 124.209 223.475 124.209ZM216.805 112.883C215.81 112.883 215.005 113.687 215.005 114.682V121.351C215.005 122.346 215.81 123.15 216.805 123.15H223.475C223.962 123.15 224.428 122.96 224.767 122.6C225.106 122.261 225.275 121.817 225.275 121.351V114.682C225.275 113.687 224.471 112.883 223.475 112.883H216.805Z" fill="white"/>
<path d="M239.801 124.209H233.131C231.564 124.209 230.272 122.917 230.272 121.351V114.682C230.272 113.116 231.564 111.824 233.131 111.824H239.801C241.368 111.824 242.66 113.116 242.66 114.682V121.351C242.66 122.917 241.368 124.209 239.801 124.209ZM233.131 112.883C232.136 112.883 231.331 113.687 231.331 114.682V121.351C231.331 122.346 232.136 123.15 233.131 123.15H239.801C240.797 123.15 241.601 122.346 241.601 121.351V114.682C241.601 113.687 240.797 112.883 239.801 112.883H233.131Z" fill="white"/>
<path d="M230.802 116.228H225.826V117.286H230.802V116.228Z" fill="white"/>
<path d="M253.239 216.063H230.094C227.637 216.063 225.647 214.073 225.647 211.617V199.317C225.647 196.861 227.637 194.871 230.094 194.871H253.239C255.695 194.871 257.686 196.861 257.686 199.317V211.617C257.686 214.073 255.695 216.063 253.239 216.063ZM230.094 196.141C228.336 196.141 226.918 197.56 226.918 199.317V211.617C226.918 213.374 228.336 214.792 230.094 214.792H253.239C254.996 214.792 256.415 213.374 256.415 211.617V199.317C256.415 197.56 254.996 196.141 253.239 196.141H230.094Z" fill="#66B0F0"/>
<path d="M242.248 210.474H234.413C233.164 210.474 232.147 209.457 232.147 208.208V202.725C232.147 201.476 233.164 200.46 234.413 200.46H242.248C243.498 200.46 244.514 201.476 244.514 202.725V208.208C244.514 209.457 243.498 210.474 242.248 210.474Z" fill="#66B0F0"/>
<path d="M249.872 210.325L247.458 208.716C246.801 208.272 246.399 207.51 246.399 206.684V204.271C246.399 203.445 246.801 202.683 247.458 202.238L249.872 200.629C250.443 200.248 251.185 200.672 251.185 201.391V209.584C251.206 210.283 250.443 210.706 249.872 210.325Z" fill="#66B0F0"/>
<path d="M562.783 285.354H0.635267C0.275282 285.354 0 285.079 0 284.719C0 284.359 0.275282 284.084 0.635267 284.084H562.783C563.143 284.084 563.418 284.359 563.418 284.719C563.418 285.079 563.143 285.354 562.783 285.354Z" fill="#3FB1B5"/>
<path d="M181.623 288.424V549.794H166.864V500.043C166.864 495.407 163.094 491.639 158.457 491.639H52.8121C48.1746 491.639 44.4054 495.407 44.4054 500.043V549.794H29.646V288.424H181.623Z" fill="white"/>
<path d="M182.258 550.429H166.228V500.044C166.228 495.767 162.734 492.274 158.457 492.274H52.8121C48.5346 492.274 45.0407 495.767 45.0407 500.044V550.429H29.0107V287.789H182.258V550.429ZM167.499 549.159H180.988V289.059H30.2813V549.159H43.7701V500.044C43.7701 495.069 47.8358 491.004 52.8121 491.004H158.457C163.433 491.004 167.499 495.069 167.499 500.044V549.159Z" fill="#3FB1B5"/>
<path d="M182.068 288.424V357.778L29.646 483.255L29.6672 288.424H182.068Z" fill="#D0F0E4"/>
<path d="M158.901 364.32H52.3883C47.645 364.32 43.791 360.467 43.791 355.725V308.325C43.791 303.583 47.645 299.729 52.3883 299.729H158.901C163.645 299.729 167.499 303.583 167.499 308.325V355.725C167.499 360.467 163.645 364.32 158.901 364.32ZM52.3883 301C48.3438 301 45.0615 304.281 45.0615 308.325V355.725C45.0615 359.769 48.3438 363.05 52.3883 363.05H158.901C162.946 363.05 166.228 359.769 166.228 355.725V308.325C166.228 304.281 162.946 301 158.901 301H52.3883Z" fill="#3FB1B5"/>
<path d="M132.728 399.59H80.2978L78.1167 384.58H130.569L132.728 399.59Z" fill="#FFCF2D"/>
<path d="M160.702 375.922C154.158 375.922 148.864 381.214 148.864 387.756V399.59H104.248V387.756C104.248 381.214 109.541 375.922 116.085 375.922H160.702Z" fill="white"/>
<path d="M149.5 400.226H103.612V387.756C103.612 380.876 109.203 375.287 116.085 375.287H160.702V376.557C154.518 376.557 149.5 381.575 149.5 387.756V400.226ZM104.883 398.956H148.229V387.756C148.229 382.845 151.088 378.59 155.217 376.557H116.085C109.901 376.557 104.883 381.575 104.883 387.756V398.956Z" fill="#3FB1B5"/>
<path d="M171.819 384.581H127.202C125.826 379.584 121.231 375.922 115.789 375.922H160.405C165.848 375.922 170.422 379.584 171.819 384.581Z" fill="white"/>
<path d="M172.666 385.216H126.737L126.61 384.75C125.276 379.923 120.829 376.557 115.81 376.557V375.287H160.427C165.996 375.287 170.951 379.034 172.455 384.412L172.666 385.216ZM127.668 383.946H170.951C169.363 379.564 165.128 376.557 160.406 376.557H121.273C124.259 378.018 126.631 380.664 127.668 383.946Z" fill="#3FB1B5"/>
<path d="M158.901 463.546H52.3883C47.645 463.546 43.791 459.693 43.791 454.951V407.55C43.791 402.808 47.645 398.955 52.3883 398.955H158.901C163.645 398.955 167.499 402.808 167.499 407.55V454.951C167.499 459.693 163.645 463.546 158.901 463.546ZM52.3883 400.225C48.3438 400.225 45.0615 403.507 45.0615 407.55V454.951C45.0615 458.994 48.3438 462.276 52.3883 462.276H158.901C162.946 462.276 166.228 458.994 166.228 454.951V407.55C166.228 403.507 162.946 400.225 158.901 400.225H52.3883Z" fill="#3FB1B5"/>
<path d="M127.477 331.718C127.117 331.718 126.842 331.443 126.842 331.083C126.842 327.653 124.068 324.88 120.637 324.88H90.6737C87.2433 324.88 84.4693 327.653 84.4693 331.083C84.4693 331.443 84.194 331.718 83.834 331.718C83.474 331.718 83.1987 331.443 83.1987 331.083C83.1987 326.954 86.5445 323.609 90.6737 323.609H120.637C124.766 323.609 128.112 326.954 128.112 331.083C128.112 331.443 127.837 331.718 127.477 331.718Z" fill="#3FB1B5"/>
<path d="M127.477 430.943C127.117 430.943 126.842 430.668 126.842 430.308C126.842 426.878 124.068 424.105 120.637 424.105H90.6737C87.2433 424.105 84.4693 426.878 84.4693 430.308C84.4693 430.668 84.194 430.943 83.834 430.943C83.474 430.943 83.1987 430.668 83.1987 430.308C83.1987 426.18 86.5445 422.835 90.6737 422.835H120.637C124.766 422.835 128.112 426.18 128.112 430.308C128.112 430.668 127.837 430.943 127.477 430.943Z" fill="#3FB1B5"/>
<path d="M540.4 288.424H524.667V550.365H540.4V288.424Z" fill="white"/>
<path d="M541.035 551.001H524.031V287.789H541.035V551.001ZM525.302 549.731H539.765V289.059H525.302V549.731Z" fill="#3FB1B5"/>
<path d="M601.365 551.001H273.017C272.657 551.001 272.381 550.725 272.381 550.366C272.381 550.006 272.657 549.73 273.017 549.73H601.365C601.725 549.73 602 550.006 602 550.366C602 550.725 601.725 551.001 601.365 551.001Z" fill="#3FB1B5"/>
<path d="M74.3267 248.792H64.8189C64.8189 248.792 51.2454 192.246 39.3235 190.404C27.4017 188.563 26.7876 210.326 26.7876 210.326C26.7876 210.326 26.9994 177.236 56.7934 181.767C86.6086 186.297 74.3267 248.792 74.3267 248.792Z" fill="white"/>
<path d="M74.8564 249.428H64.3322L64.2051 248.941C64.1628 248.792 60.7535 234.651 55.9467 220.488C47.9846 197.052 42.4578 191.526 39.2391 191.04C37.0369 190.701 35.0887 191.209 33.4794 192.564C27.8679 197.221 27.4444 210.22 27.4444 210.347L26.1738 210.326C26.1738 210.156 26.2162 206.282 27.4655 201.328C28.6302 196.734 31.0866 190.32 36.2322 185.916C41.4626 181.449 48.4082 179.84 56.9207 181.153C62.4264 181.979 66.8944 184.815 70.219 189.536C75.5552 197.137 77.9904 209.437 77.4187 226.14C76.9952 238.525 75.0047 248.814 74.9835 248.919L74.8564 249.428ZM65.3274 248.157H73.8188C74.2212 245.934 75.7882 236.789 76.1481 226.077C76.5293 214.793 75.6188 199.444 69.1814 190.277C66.0686 185.832 61.8758 183.185 56.7301 182.423C48.6199 181.195 41.992 182.698 37.058 186.911C35.5758 188.182 34.3052 189.642 33.2464 191.188C35.0464 189.918 37.1216 189.473 39.4509 189.833C44.6389 190.637 50.6104 200.841 57.1748 220.149C61.4735 232.83 64.671 245.532 65.3274 248.157Z" fill="#3FB1B5"/>
<path d="M70.1546 248.581C69.8158 248.581 69.5193 248.305 69.5193 247.945C68.8205 205.795 59.8844 190.912 52.5153 185.874C46.925 182.042 42.0334 183.778 41.9911 183.799C41.6523 183.926 41.2923 183.757 41.1652 183.418C41.0382 183.079 41.2076 182.719 41.5464 182.592C41.7793 182.508 47.0944 180.624 53.2353 184.815C57.9786 188.076 61.8538 194.046 64.7336 202.598C68.4394 213.607 70.4722 228.85 70.7898 247.924C70.7898 248.284 70.5146 248.581 70.1546 248.581Z" fill="#3FB1B5"/>
<path d="M100.224 247.945H55.5649V284.295H100.224V247.945Z" fill="#FE5244"/>
<path d="M109.626 266.131C106.788 267.358 103.4 267.21 100.245 265.834C97.9157 264.818 95.7135 263.146 93.9348 260.859C91.4784 257.684 89.8267 253.344 89.8267 247.945C89.8267 234.862 79.4083 226.648 75.1309 243.965C74.8344 245.172 74.5591 246.484 74.3262 247.945V247.903V247.818C74.3262 247.776 74.3262 247.712 74.3474 247.649V247.564C74.4321 246.484 74.7497 243.288 75.7238 239.435C76.4437 236.577 77.5237 233.401 79.133 230.458C79.9377 228.998 80.8694 227.6 81.9706 226.351C84.8081 223.091 88.7044 220.805 94.0194 220.805C103.803 220.805 110.96 232.321 113.692 243.796C116.084 253.767 115.11 263.738 109.626 266.131Z" fill="white"/>
<path d="M105.454 267.592C103.654 267.592 101.77 267.189 99.9911 266.406C97.4712 265.305 95.2055 263.527 93.4267 261.241C90.6527 257.663 89.1916 253.048 89.1916 247.946C89.1916 241.975 86.5658 235.243 82.6484 234.778C79.8108 234.439 77.3121 237.847 75.7451 244.114C75.4275 245.426 75.1734 246.696 74.9405 248.051L73.6699 247.946V247.818C73.6699 247.776 73.6699 247.67 73.6911 247.564V247.501C73.7758 246.315 74.1146 243.14 75.0887 239.266C75.9569 235.836 77.1215 232.766 78.5615 230.141C79.472 228.511 80.4249 227.114 81.4837 225.928C84.8083 222.096 89.0222 220.17 94.0196 220.17C104.184 220.17 111.532 231.962 114.306 243.648C115.534 248.792 115.873 253.852 115.238 257.896C114.539 262.447 112.675 265.475 109.88 266.703C108.525 267.295 107.021 267.592 105.454 267.592ZM82.2672 233.486C82.4578 233.486 82.6272 233.507 82.7966 233.528C87.0317 234.037 90.4621 240.515 90.4621 247.967C90.4621 252.794 91.8385 257.133 94.4431 260.5C96.0948 262.617 98.1912 264.268 100.499 265.284C103.527 266.597 106.767 266.703 109.372 265.58C114.115 263.506 115.619 254.635 113.078 243.987C111.659 237.995 109.139 232.47 106.005 228.426C102.469 223.875 98.3394 221.482 94.0196 221.482C89.4245 221.482 85.5282 223.282 82.4578 226.817C81.4625 227.961 80.552 229.252 79.705 230.819C78.6462 232.766 77.7356 234.947 76.9945 237.36C77.3545 236.768 77.7145 236.238 78.0956 235.773C79.5991 233.931 81.1237 233.486 82.2672 233.486Z" fill="#3FB1B5"/>
<path d="M107.36 267.168C107.043 267.168 106.767 266.935 106.725 266.597C103.633 237.572 96.5819 228.596 91.2245 226.182C86.4388 224.023 82.3943 226.839 82.3519 226.86C82.0766 227.072 81.6743 226.987 81.4625 226.712C81.2508 226.436 81.3355 226.034 81.6108 225.823C81.8013 225.696 86.2906 222.562 91.7327 225.018C95.3325 226.648 98.4665 230.332 101.029 236.005C104.247 243.098 106.577 253.344 107.974 266.449C108.017 266.787 107.763 267.105 107.403 267.147C107.403 267.168 107.381 267.168 107.36 267.168Z" fill="#3FB1B5"/>
<path d="M26.1518 210.325C26.1518 213.819 25.7495 227.177 38.4972 227.791C51.2449 228.405 52.5154 209.161 52.5154 209.161C52.5154 209.161 46.2474 192.14 39.323 190.404C27.6129 187.461 26.1518 210.325 26.1518 210.325Z" fill="#3FB1B5"/>
<path d="M89.8267 247.945H74.3262C77.9048 225.526 89.8267 233.952 89.8267 247.945Z" fill="#3FB1B5"/>
<path opacity="0.4" d="M353.06 83.2818V223.028C353.06 230.543 346.962 236.619 339.466 236.619H179.484C169.447 250.443 148.758 250.507 138.637 236.619L138.615 236.598C134.592 236.323 131.035 234.269 128.748 231.242L132.432 228.066L226.452 146.941L315.982 69.6904H339.466C346.962 69.6904 353.06 75.7875 353.06 83.2818Z" fill="white"/>
<path opacity="0.4" d="M109.626 266.766C106.81 268.036 103.4 267.845 100.245 266.469V284.295H67.2749L93.9561 261.283L100.266 255.842L105.073 251.692L114.369 243.796C117.08 255.355 115.576 264.035 109.626 266.766Z" fill="white"/>
<path d="M390.392 360.826V478.661H363.16L345.817 430.244L320.979 360.826H390.392Z" fill="#A0505A"/>
<path d="M320.979 360.826H390.392V398.658L329.237 383.881L320.979 360.826Z" fill="#73325A"/>
<path d="M391.027 479.296H362.716L344.653 428.868L346.135 429.673C346.177 429.694 349.693 431.578 356.85 432.509C363.457 433.377 374.637 433.568 390.244 429.609L391.027 429.419V479.296ZM363.605 478.026H389.757V431.049C374.299 434.881 363.203 434.648 356.575 433.78C351.768 433.145 348.591 432.107 346.919 431.43L363.605 478.026Z" fill="white"/>
<path d="M359.984 442.248C357.93 442.248 356.257 440.575 356.257 438.522C356.257 436.468 357.93 434.796 359.984 434.796C362.038 434.796 363.711 436.468 363.711 438.522C363.711 440.575 362.038 442.248 359.984 442.248ZM359.984 436.066C358.628 436.066 357.527 437.167 357.527 438.522C357.527 439.877 358.628 440.978 359.984 440.978C361.339 440.978 362.44 439.877 362.44 438.522C362.44 437.167 361.339 436.066 359.984 436.066Z" fill="white"/>
<path d="M374.723 452.22C372.669 452.22 370.996 450.547 370.996 448.494C370.996 446.44 372.669 444.768 374.723 444.768C376.777 444.768 378.449 446.44 378.449 448.494C378.449 450.547 376.777 452.22 374.723 452.22ZM374.723 446.038C373.367 446.038 372.266 447.139 372.266 448.494C372.266 449.849 373.367 450.949 374.723 450.949C376.078 450.949 377.179 449.849 377.179 448.494C377.179 447.139 376.078 446.038 374.723 446.038Z" fill="white"/>
<path d="M385.691 441.147C383.637 441.147 381.964 439.475 381.964 437.421C381.964 435.368 383.637 433.695 385.691 433.695C387.745 433.695 389.418 435.368 389.418 437.421C389.418 439.475 387.745 441.147 385.691 441.147ZM385.691 434.966C384.336 434.966 383.234 436.066 383.234 437.421C383.234 438.776 384.336 439.877 385.691 439.877C387.046 439.877 388.147 438.776 388.147 437.421C388.147 436.066 387.046 434.966 385.691 434.966Z" fill="white"/>
<path d="M381.35 463.82C379.296 463.82 377.623 462.148 377.623 460.094C377.623 458.041 379.296 456.368 381.35 456.368C383.404 456.368 385.077 458.041 385.077 460.094C385.077 462.148 383.404 463.82 381.35 463.82ZM381.35 457.638C379.995 457.638 378.894 458.739 378.894 460.094C378.894 461.449 379.995 462.55 381.35 462.55C382.705 462.55 383.806 461.449 383.806 460.094C383.806 458.739 382.705 457.638 381.35 457.638Z" fill="white"/>
<path d="M363.076 458.189C361.022 458.189 359.349 456.517 359.349 454.463C359.349 452.41 361.022 450.737 363.076 450.737C365.13 450.737 366.803 452.41 366.803 454.463C366.803 456.517 365.13 458.189 363.076 458.189ZM363.076 452.008C361.721 452.008 360.62 453.108 360.62 454.463C360.62 455.818 361.721 456.919 363.076 456.919C364.431 456.919 365.532 455.818 365.532 454.463C365.532 453.108 364.431 452.008 363.076 452.008Z" fill="white"/>
<path d="M368.116 475.126C366.062 475.126 364.389 473.453 364.389 471.4C364.389 469.346 366.062 467.674 368.116 467.674C370.17 467.674 371.842 469.346 371.842 471.4C371.842 473.453 370.17 475.126 368.116 475.126ZM368.116 468.944C366.76 468.944 365.659 470.045 365.659 471.4C365.659 472.755 366.76 473.856 368.116 473.856C369.471 473.856 370.572 472.755 370.572 471.4C370.572 470.045 369.471 468.944 368.116 468.944Z" fill="white"/>
<path d="M403.267 500.636L384.59 539.399C381.943 545.644 375.823 549.709 369.026 549.709H345.203C339.105 549.709 335.399 543.527 337.728 537.896L361.678 480.143C363.012 476.629 365.363 473.707 368.306 471.653C371.271 469.6 374.828 468.436 378.576 468.436C383.785 468.436 388.952 471.971 392.383 475.888L400.683 484.843C404.516 489.204 405.511 495.322 403.267 500.636Z" fill="#66B0F0"/>
<path d="M403.267 500.635L384.59 539.398C381.943 545.644 375.823 549.708 369.026 549.708H343.7C341.35 549.708 340.015 548.248 339.232 546.236H344.865C351.662 546.236 357.782 542.172 360.429 535.926L381.964 491.024C383.976 486.832 388.232 484.144 392.891 484.144C398.968 484.144 403.584 488.589 404.431 494.221C404.516 496.38 404.135 498.561 403.267 500.635Z" fill="white"/>
<path d="M369.026 550.344H343.7C341.349 550.344 339.634 549.031 338.639 546.47C338.554 546.279 338.596 546.046 338.702 545.877C338.829 545.707 339.02 545.602 339.232 545.602H344.864C351.408 545.602 357.295 541.706 359.836 535.673C359.836 535.673 359.836 535.652 359.857 535.652L381.392 490.749C383.51 486.346 388.02 483.509 392.891 483.509C399.01 483.509 404.135 487.976 405.067 494.136C405.067 494.157 405.067 494.179 405.067 494.2C405.151 496.486 404.749 498.752 403.86 500.89C403.86 500.89 403.86 500.911 403.838 500.911L385.162 539.653C382.409 546.152 376.077 550.344 369.026 550.344ZM340.227 546.872C341.032 548.375 342.154 549.074 343.7 549.074H369.026C375.569 549.074 381.456 545.178 383.997 539.145C383.997 539.145 383.997 539.123 384.018 539.123L402.695 500.382C403.5 498.434 403.881 496.38 403.796 494.285C402.949 488.78 398.375 484.779 392.891 484.779C388.507 484.779 384.442 487.341 382.536 491.3L361 536.181C358.247 542.68 351.916 546.872 344.864 546.872H340.227Z" fill="#66B0F0"/>
<path d="M398.968 482.98C396.723 481.752 394.013 480.863 391.641 480.863C387.089 480.863 382.875 483.509 380.905 487.616L358.607 534.107C355.77 540.818 349.206 545.158 341.9 545.158H337.792C337.58 544.755 337.432 544.332 337.284 543.887H341.9C348.697 543.887 354.796 539.844 357.443 533.599L357.464 533.577L379.783 487.066C381.964 482.514 386.623 479.593 391.663 479.593C393.272 479.593 395.199 480.122 396.851 480.694L398.968 482.98Z" fill="white"/>
<path d="M320.979 360.826L315.664 430.244L313.292 461.343C313.292 461.343 297.813 478.576 280.194 467.948L272.042 430.265L253.386 344.038C248.346 320.729 264.27 298.056 287.924 294.901L320.979 360.826Z" fill="#A0505A"/>
<path d="M292.116 472.881C288.326 472.881 284.154 471.928 279.877 469.345L279.644 469.197L271.216 429.354L272.232 429.672C292.285 435.684 315.282 429.714 315.515 429.651L316.383 429.418L313.927 462.465L313.779 462.634C313.609 462.804 309.755 467.059 303.636 470.065C300.565 471.547 296.584 472.881 292.116 472.881ZM280.766 468.393C287.796 472.542 295.292 472.711 303.043 468.922C308.294 466.339 311.936 462.698 312.677 461.915L314.964 431.069C313.037 431.514 308.04 432.594 301.581 433.186C294.149 433.885 283.244 434.054 272.868 431.175L280.766 468.393Z" fill="white"/>
<path d="M291.332 450.08C289.278 450.08 287.605 448.407 287.605 446.354C287.605 444.3 289.278 442.628 291.332 442.628C293.386 442.628 295.059 444.3 295.059 446.354C295.059 448.407 293.386 450.08 291.332 450.08ZM291.332 443.898C289.977 443.898 288.876 444.999 288.876 446.354C288.876 447.709 289.977 448.81 291.332 448.81C292.688 448.81 293.789 447.709 293.789 446.354C293.789 444.999 292.688 443.898 291.332 443.898Z" fill="white"/>
<path d="M310.983 445.339C308.929 445.339 307.256 443.666 307.256 441.613C307.256 439.559 308.929 437.887 310.983 437.887C313.037 437.887 314.71 439.559 314.71 441.613C314.71 443.666 313.037 445.339 310.983 445.339ZM310.983 439.157C309.628 439.157 308.527 440.258 308.527 441.613C308.527 442.968 309.628 444.068 310.983 444.068C312.339 444.068 313.44 442.968 313.44 441.613C313.44 440.258 312.339 439.157 310.983 439.157Z" fill="white"/>
<path d="M279.474 441.146C277.42 441.146 275.747 439.474 275.747 437.42C275.747 435.367 277.42 433.694 279.474 433.694C281.528 433.694 283.201 435.367 283.201 437.42C283.201 439.474 281.528 441.146 279.474 441.146ZM279.474 434.965C278.119 434.965 277.018 436.065 277.018 437.42C277.018 438.775 278.119 439.876 279.474 439.876C280.829 439.876 281.93 438.775 281.93 437.42C281.93 436.065 280.829 434.965 279.474 434.965Z" fill="white"/>
<path d="M288.241 466.911C286.187 466.911 284.514 465.238 284.514 463.185C284.514 461.131 286.187 459.459 288.241 459.459C290.295 459.459 291.968 461.131 291.968 463.185C291.968 465.238 290.295 466.911 288.241 466.911ZM288.241 460.729C286.886 460.729 285.785 461.83 285.785 463.185C285.785 464.54 286.886 465.641 288.241 465.641C289.596 465.641 290.697 464.54 290.697 463.185C290.697 461.83 289.596 460.729 288.241 460.729Z" fill="white"/>
<path d="M302.661 460.729C300.607 460.729 298.935 459.057 298.935 457.003C298.935 454.95 300.607 453.277 302.661 453.277C304.715 453.277 306.388 454.95 306.388 457.003C306.388 459.057 304.715 460.729 302.661 460.729ZM302.661 454.548C301.306 454.548 300.205 455.648 300.205 457.003C300.205 458.358 301.306 459.459 302.661 459.459C304.017 459.459 305.118 458.358 305.118 457.003C305.118 455.648 304.017 454.548 302.661 454.548Z" fill="white"/>
<path d="M333.705 468.753L313.292 550.365H306.855C306.558 550.365 306.283 550.344 305.986 550.323C301.116 549.878 297.008 545.771 295.97 540.923L280.173 467.906C297.791 478.555 313.292 461.322 313.292 461.322L333.705 468.753Z" fill="#66B0F0"/>
<path d="M334.743 510.629C339.041 487.934 340.227 470.595 332.816 469.198C325.404 467.801 312.212 482.853 307.913 505.548C303.615 528.242 305.859 548.312 313.271 549.709C320.682 551.128 330.444 533.345 334.743 510.629Z" fill="white"/>
<path d="M314.118 550.429C313.8 550.429 313.461 550.408 313.143 550.344C309.29 549.625 306.6 544.417 305.563 535.694C304.567 527.29 305.181 516.535 307.278 505.442C309.268 494.963 313.313 485.203 318.67 477.963C323.583 471.336 328.919 467.822 332.921 468.584C336.775 469.304 338.681 473.665 338.787 481.922C338.872 488.654 337.749 498.075 335.357 510.756C333.663 519.69 331.1 528.094 327.945 535.059C324.832 541.94 321.423 546.767 318.098 549.032C316.743 549.942 315.409 550.429 314.118 550.429ZM331.82 469.749C328.432 469.749 323.879 473.093 319.708 478.725C314.456 485.817 310.496 495.386 308.527 505.675C306.452 516.662 305.838 527.269 306.812 535.546C307.765 543.549 310.158 548.481 313.376 549.095C314.605 549.328 315.96 548.947 317.4 547.973C323.901 543.549 330.783 528.158 334.107 510.523C336.5 497.948 337.601 488.59 337.516 481.943C337.432 474.491 335.801 470.426 332.688 469.833C332.413 469.77 332.117 469.749 331.82 469.749Z" fill="#66B0F0"/>
<path d="M304.948 505.188C302.725 516.958 302.069 528.327 303.127 537.218C303.89 543.612 305.499 548.164 307.701 550.365H306.854C306.558 550.365 306.282 550.344 305.986 550.323C303.996 547.698 302.577 543.294 301.857 537.367C300.777 528.369 301.433 516.852 303.699 504.955C305.838 493.692 310.158 483.128 315.896 475.189C319.327 470.447 322.926 467.123 326.209 465.62L328.114 466.255C320.555 468.499 309.078 483.403 304.948 505.188Z" fill="white"/>
<path d="M287.924 294.881L384.527 284.931L481.088 312.008L480.262 324.837C478.949 345.076 461.5 360.827 441.214 360.827H321.001L287.924 294.881Z" fill="#FE5244"/>
<path d="M436.957 352.572H316.744C316.384 352.572 316.108 352.296 316.108 351.936C316.108 351.577 316.384 351.301 316.744 351.301H436.957C446.147 351.301 455.782 346.453 463.406 337.964C470.626 329.919 474.946 319.863 474.946 311.077C474.946 310.718 475.222 310.442 475.582 310.442C475.942 310.442 476.217 310.718 476.217 311.077C476.217 320.181 471.77 330.554 464.358 338.832C456.481 347.554 446.507 352.572 436.957 352.572Z" fill="white"/>
<path d="M427.492 341.986H311.874C311.514 341.986 311.238 341.711 311.238 341.351C311.238 340.991 311.514 340.716 311.874 340.716H427.492C435.518 340.716 443.818 336.947 450.828 330.088C457.413 323.652 462.029 315.353 463.491 307.309C463.554 306.97 463.893 306.737 464.232 306.8C464.571 306.864 464.803 307.203 464.74 307.541C461.754 323.822 445.724 341.986 427.492 341.986Z" fill="white"/>
<path d="M417.306 331.188H305.732C305.372 331.188 305.097 330.913 305.097 330.553C305.097 330.193 305.372 329.918 305.732 329.918H417.306C432.553 329.918 445.788 316.2 450.51 303.307C450.637 302.968 450.997 302.799 451.314 302.926C451.653 303.053 451.823 303.413 451.696 303.73C449.07 310.907 444.326 317.661 438.313 322.741C431.769 328.267 424.506 331.188 417.306 331.188Z" fill="white"/>
<path d="M411.801 319.545H300.227C299.867 319.545 299.592 319.27 299.592 318.91C299.592 318.55 299.867 318.275 300.227 318.275H411.801C422.304 318.275 433.315 311.437 440.557 300.45C440.748 300.153 441.15 300.068 441.447 300.259C441.743 300.449 441.828 300.852 441.637 301.148C434.141 312.495 422.728 319.545 411.801 319.545Z" fill="white"/>
<path d="M406.507 308.96H294.933C294.573 308.96 294.298 308.684 294.298 308.324C294.298 307.965 294.573 307.689 294.933 307.689H406.507C414.596 307.689 422.749 303.963 429.462 297.21C429.716 296.956 430.118 296.956 430.351 297.21C430.605 297.464 430.605 297.866 430.351 298.099C423.405 305.107 414.935 308.96 406.507 308.96Z" fill="white"/>
<path d="M400.79 298.163H289.216C288.856 298.163 288.581 297.888 288.581 297.528C288.581 297.168 288.856 296.893 289.216 296.893H400.79C405.554 296.893 410.34 295.538 415.041 292.891C415.337 292.722 415.74 292.828 415.909 293.124C416.079 293.421 415.973 293.823 415.676 293.992C410.785 296.766 405.766 298.163 400.79 298.163Z" fill="white"/>
<path d="M320.768 361.463C320.535 361.463 320.302 361.336 320.196 361.103L287.141 295.157C286.992 294.839 287.12 294.458 287.416 294.31C287.734 294.162 288.115 294.289 288.263 294.585L321.318 360.531C321.466 360.849 321.339 361.23 321.043 361.378C320.958 361.442 320.873 361.463 320.768 361.463Z" fill="white"/>
<path d="M486.381 223.643C477.276 226.225 468.318 225.463 467.365 222.69C466.476 220.044 470.499 215.513 478.652 212.507C479.054 212.359 479.478 212.211 479.901 212.062C482.358 211.237 484.814 210.707 487.122 210.432C493.962 209.564 499.531 210.792 500.23 212.867C501.183 215.64 496.016 220.912 486.381 223.643Z" fill="white"/>
<path d="M475.539 225.865C470.923 225.865 467.429 224.827 466.751 222.901C465.608 219.514 470.626 214.793 478.419 211.913C478.821 211.765 479.245 211.617 479.668 211.469H479.69C482.082 210.664 484.56 210.114 487.037 209.818C494.047 208.928 499.976 210.156 500.823 212.676C501.119 213.501 500.971 214.517 500.42 215.576C498.642 218.963 493.2 222.393 486.55 224.277C482.718 225.335 478.843 225.865 475.539 225.865ZM491.463 210.791C490.171 210.791 488.753 210.876 487.207 211.067C484.814 211.363 482.421 211.892 480.113 212.676C479.69 212.824 479.266 212.972 478.885 213.12C475.2 214.475 472.066 216.275 470.076 218.201C468.403 219.81 467.62 221.419 467.98 222.499C468.678 224.552 476.831 225.695 486.212 223.049C491.4 221.588 497.456 218.519 499.298 214.983C499.679 214.242 499.806 213.586 499.637 213.078C499.256 211.956 496.249 210.791 491.463 210.791Z" fill="#3FB1B5"/>
<path d="M480.621 285.374H477.127L467.958 223.493V223.451L467.725 221.906C468.17 219.09 472.574 215.11 480.346 212.527C484.221 211.236 488.075 210.664 491.357 210.601L494.703 219.767L495.02 220.635L505.608 249.66C511.961 266.999 499.107 285.374 480.621 285.374Z" fill="#A0505A"/>
<path d="M494.914 220.424C492.691 221.821 489.811 223.112 486.381 224.086C478.503 226.309 470.52 225.399 467.958 223.493V223.451L467.725 221.906C468.17 219.09 472.574 215.11 480.346 212.527C484.221 211.236 488.075 210.664 491.357 210.601L494.914 220.424Z" fill="#73325A"/>
<path d="M367.205 234.46L356.088 262.109C350.603 275.764 337.347 284.719 322.609 284.719H173.173V271.043C173.173 267.74 175.206 264.776 178.298 263.612L193.65 257.79C195.048 257.261 196.509 256.985 197.991 256.985H215.419L314.054 247.035L331.079 208.061L367.205 234.46Z" fill="#A0505A"/>
<path d="M173.809 276.822C173.449 276.822 173.173 276.547 173.173 276.187C173.173 273.414 174.846 270.979 177.451 269.984L189.034 265.602C189.351 265.475 189.733 265.644 189.86 265.962C189.987 266.279 189.817 266.661 189.5 266.788L177.917 271.17C175.82 271.974 174.444 273.943 174.444 276.187C174.444 276.547 174.169 276.822 173.809 276.822Z" fill="#73325A"/>
<path d="M173.809 283.808C173.449 283.808 173.173 283.532 173.173 283.173C173.173 280.399 174.846 277.965 177.451 276.97L189.034 272.587C189.351 272.46 189.733 272.63 189.86 272.947C189.987 273.265 189.817 273.646 189.5 273.773L177.917 278.155C175.82 278.96 174.444 280.928 174.444 283.173C174.444 283.532 174.169 283.808 173.809 283.808Z" fill="#73325A"/>
<path d="M177.683 284.719C177.429 284.719 177.175 284.55 177.091 284.296C176.963 283.957 177.133 283.597 177.472 283.491L189.055 279.32C189.394 279.193 189.754 279.363 189.859 279.702C189.986 280.04 189.817 280.4 189.478 280.506L177.895 284.677C177.832 284.698 177.747 284.719 177.683 284.719Z" fill="#73325A"/>
<path d="M188.06 260.139C188.06 260.139 198.901 232.47 202.374 232.936C205.847 233.401 192.761 258.361 192.761 258.361L188.06 260.139Z" fill="#FE5244"/>
<path d="M331.079 208.082L328.581 213.777L360.577 250.931L367.205 234.46L331.079 208.082Z" fill="#73325A"/>
<path d="M467.958 223.515L481.087 312.008L384.548 284.931L367.205 234.439L322.44 201.731L338.152 183.016C352.17 166.313 372.859 156.659 394.67 156.659H425.692C452.67 156.659 477.509 171.394 490.447 195.062L500.505 212.464C500.505 212.464 497.477 208.019 481.151 212.486C466.773 216.444 467.958 223.515 467.958 223.515Z" fill="#3FB1B5"/>
<path d="M367.205 234.672C367.163 234.672 367.099 234.672 367.057 234.65C366.718 234.566 366.506 234.227 366.591 233.888L371.61 212.125C371.694 211.786 372.033 211.575 372.372 211.659C372.711 211.744 372.922 212.083 372.838 212.421L367.819 234.185C367.756 234.481 367.502 234.672 367.205 234.672Z" fill="white"/>
<path d="M478.652 291.98C478.355 291.98 478.08 291.769 478.017 291.451L461.69 189.981C461.627 189.642 461.86 189.304 462.22 189.261C462.558 189.198 462.897 189.431 462.939 189.791L479.266 291.26C479.329 291.599 479.097 291.938 478.737 291.98C478.715 291.98 478.694 291.98 478.652 291.98Z" fill="white"/>
<path d="M480.876 312.643C480.812 312.643 480.77 312.643 480.706 312.622L384.357 285.142C384.019 285.037 383.828 284.698 383.913 284.359C384.018 284.02 384.357 283.83 384.696 283.915L481.045 311.394C481.384 311.5 481.574 311.838 481.49 312.177C481.405 312.452 481.151 312.643 480.876 312.643Z" fill="white"/>
<path d="M389.735 142.517V156.744L414.85 156.532V131.424L389.735 142.517Z" fill="#A0505A"/>
<path d="M416.883 127.041V127.422C416.883 131.233 414.003 134.324 410.191 134.324H408.709C407.756 138.092 399.286 142.496 393.272 142.496H386.263C378.597 142.496 372.732 135.615 373.981 128.036L374.32 125.983L372.245 124.818C371.059 124.141 370.72 122.596 371.546 121.495L376.035 115.567L377.009 109.724C377.793 104.918 380.948 101.002 385.14 99.0752C386.792 117.684 403.224 119.886 407.565 120.14H409.979C413.791 120.14 416.883 123.231 416.883 127.041Z" fill="#A0505A"/>
<path d="M405.766 129.497C405.406 129.497 405.13 129.222 405.13 128.862C405.13 125.517 407.862 122.786 411.208 122.786C411.568 122.786 411.843 123.061 411.843 123.421C411.843 123.781 411.568 124.056 411.208 124.056C408.561 124.056 406.401 126.216 406.401 128.862C406.401 129.222 406.126 129.497 405.766 129.497Z" fill="#73325A"/>
<path d="M382.811 120.33C383.408 120.33 383.891 119.212 383.891 117.832C383.891 116.452 383.408 115.334 382.811 115.334C382.215 115.334 381.731 116.452 381.731 117.832C381.731 119.212 382.215 120.33 382.811 120.33Z" fill="#73325A"/>
<path d="M387.216 114.678C387.025 114.678 386.834 114.593 386.707 114.424C383.891 110.529 381.265 110.74 381.223 110.74C380.863 110.783 380.566 110.529 380.524 110.169C380.482 109.83 380.736 109.512 381.096 109.47C381.223 109.449 384.484 109.195 387.724 113.662C387.936 113.937 387.872 114.339 387.576 114.551C387.47 114.636 387.343 114.678 387.216 114.678Z" fill="#73325A"/>
<path d="M407.566 120.14H409.98C413.791 120.14 416.883 123.231 416.883 127.042V127.423C416.883 131.233 414.003 134.324 410.191 134.324L408.561 135.467C401.7 139.871 392.213 157.188 394.543 169.446C397.168 183.228 409.175 186.298 420.271 184.181C431.367 182.064 439.456 175.607 436.83 161.803C436.534 160.173 436.047 158.543 435.433 156.934C435.623 156.998 435.793 157.061 435.983 157.125C449.324 160.766 464.994 161.19 469.314 150.774C473.633 140.358 472.659 130.048 459.679 124.671C452.14 121.537 441.891 121.559 433.95 123.718C437.953 109.809 430.838 94.3334 417.772 92.7879C397.253 90.3533 385.479 98.8215 385.162 99.0544C385.141 101.51 386.813 118.933 407.566 120.14Z" fill="#73325A"/>
<path d="M435.983 157.781C435.687 157.781 435.411 157.57 435.369 157.273C433.124 145.524 423.511 139.045 423.405 138.982C423.235 138.876 423.129 138.664 423.129 138.453C423.129 138.241 423.235 138.05 423.405 137.923C429.969 133.287 432.807 126.597 433.908 123.041C434.014 122.702 434.374 122.511 434.691 122.617C435.03 122.723 435.221 123.083 435.115 123.4C434.014 126.999 431.219 133.605 424.845 138.431C427.238 140.231 434.628 146.54 436.618 157.019C436.682 157.358 436.449 157.697 436.11 157.76C436.068 157.781 436.025 157.781 435.983 157.781Z" fill="white"/>
<path d="M440.24 123.4H434.628C434.268 123.4 433.993 123.125 433.993 122.765V117.155C433.993 113.874 436.661 111.206 439.944 111.206H440.24C443.522 111.206 446.19 113.874 446.19 117.155V117.451C446.212 119.018 445.597 120.521 444.475 121.643C443.353 122.765 441.849 123.4 440.24 123.4ZM435.264 122.13H440.24C441.511 122.13 442.675 121.643 443.565 120.733C444.433 119.844 444.92 118.679 444.92 117.451V117.155C444.92 114.572 442.823 112.476 440.24 112.476H439.944C437.36 112.476 435.264 114.572 435.264 117.155V122.13Z" fill="#FE5244"/>
<path d="M443.374 131.995C441.108 131.995 438.927 130.894 437.635 128.862L434.035 123.146C433.845 122.85 433.929 122.447 434.226 122.278L439.943 118.679C441.468 117.726 443.289 117.409 445.047 117.811C446.804 118.213 448.308 119.272 449.282 120.796L449.621 121.325C450.595 122.85 450.891 124.67 450.489 126.427C450.087 128.185 449.028 129.688 447.503 130.662L446.974 131C445.873 131.657 444.623 131.995 443.374 131.995ZM435.454 122.998L438.715 128.185C440.325 130.725 443.734 131.487 446.317 129.878L446.847 129.54C448.096 128.756 448.943 127.55 449.261 126.11C449.578 124.67 449.324 123.21 448.541 121.961L448.202 121.431C447.418 120.182 446.211 119.335 444.771 119.018C443.331 118.7 441.87 118.954 440.621 119.738L435.454 122.998Z" fill="#FE5244"/>
<path d="M408.688 148.932C408.54 148.932 408.391 148.932 408.243 148.911C406.655 148.784 405.215 148.064 404.177 146.858L403.987 146.625C402.949 145.439 402.441 143.915 402.547 142.348C402.653 140.76 403.373 139.3 404.58 138.262L408.561 134.452C408.688 134.325 408.857 134.261 409.027 134.282C409.196 134.282 409.365 134.367 409.471 134.494L413.389 138.919C414.426 140.125 414.956 141.671 414.829 143.259C414.702 144.846 413.982 146.286 412.775 147.323L412.521 147.514C411.483 148.424 410.128 148.932 408.688 148.932ZM408.984 135.807L405.469 139.173L405.448 139.194C404.495 140.02 403.923 141.163 403.839 142.433C403.754 143.682 404.156 144.868 404.961 145.799C404.961 145.799 404.961 145.82 404.982 145.82L405.173 146.053C405.977 146.985 407.1 147.556 408.349 147.662C409.598 147.747 410.805 147.344 411.758 146.54L412.012 146.328C412.944 145.524 413.516 144.402 413.622 143.153C413.706 141.904 413.304 140.697 412.499 139.744L408.984 135.807Z" fill="#FE5244"/>
<path d="M416.798 146.604C413.834 146.604 411.102 144.635 410.255 141.65L408.455 135.151C408.37 134.812 408.561 134.473 408.9 134.367L415.401 132.568C417.137 132.081 418.958 132.314 420.525 133.182C422.092 134.071 423.236 135.51 423.723 137.246L423.892 137.86C424.379 139.596 424.146 141.417 423.278 142.984C422.389 144.55 420.949 145.693 419.212 146.18L418.598 146.35C417.984 146.54 417.391 146.604 416.798 146.604ZM411.483 141.311C412.309 144.212 415.337 145.948 418.238 145.143L418.852 144.974C420.271 144.571 421.436 143.661 422.156 142.391C422.876 141.121 423.045 139.639 422.664 138.22L422.494 137.606C422.092 136.188 421.182 135.024 419.911 134.304C418.641 133.584 417.158 133.415 415.739 133.796L409.853 135.426L411.483 141.311Z" fill="#FE5244"/>
<path d="M316.193 550.344C316.15 550.344 316.108 550.344 316.066 550.323C315.727 550.26 315.494 549.921 315.579 549.561L352.466 376.958C352.53 376.62 352.869 376.387 353.229 376.472C353.568 376.535 353.8 376.874 353.716 377.234L316.807 549.836C316.743 550.132 316.489 550.344 316.193 550.344Z" fill="#FFCF2D"/>
<path d="M484.369 550.345C484.073 550.345 483.818 550.133 483.755 549.837L446.867 377.234C446.804 376.896 447.015 376.557 447.354 376.472C447.693 376.409 448.032 376.62 448.117 376.959L485.004 549.561C485.068 549.9 484.856 550.239 484.517 550.324C484.454 550.345 484.411 550.345 484.369 550.345Z" fill="#FFCF2D"/>
<path d="M475.687 512.026H324.367C324.007 512.026 323.731 511.751 323.731 511.391C323.731 511.031 324.007 510.756 324.367 510.756H475.687C476.047 510.756 476.322 511.031 476.322 511.391C476.322 511.751 476.047 512.026 475.687 512.026Z" fill="#FFCF2D"/>
<path d="M476.512 377.106H324.027C322.1 377.106 320.533 375.54 320.533 373.613V364.319C320.533 362.393 322.1 360.826 324.027 360.826H476.512C478.439 360.826 480.006 362.393 480.006 364.319V373.613C480.006 375.54 478.439 377.106 476.512 377.106Z" fill="white"/>
<path d="M476.512 377.742H324.027C321.74 377.742 319.898 375.9 319.898 373.614V364.32C319.898 362.033 321.74 360.191 324.027 360.191H476.512C478.799 360.191 480.642 362.033 480.642 364.32V373.614C480.642 375.9 478.799 377.742 476.512 377.742ZM324.027 361.462C322.46 361.462 321.168 362.753 321.168 364.32V373.614C321.168 375.18 322.46 376.472 324.027 376.472H476.512C478.079 376.472 479.371 375.18 479.371 373.614V364.32C479.371 362.753 478.079 361.462 476.512 361.462H324.027Z" fill="#66B0F0"/>
</svg>
